<svg width="25" height="25" viewBox="0 0 25 25" fill="none" xmlns="http://www.w3.org/2000/svg">
<path d="M11.5825 2.11573C11.9307 1.31285 13.0693 1.31285 13.4175 2.11573L15.6596 7.28628C15.8045 7.62043 16.1196 7.84938 16.4822 7.88393L22.0925 8.41853C22.9637 8.50155 23.3155 9.58442 22.6595 10.1636L18.4349 13.8938C18.1619 14.1349 18.0415 14.5053 18.1207 14.8608L19.346 20.3618C19.5362 21.216 18.6151 21.8852 17.8615 21.4403L13.0084 18.5751C12.6948 18.39 12.3052 18.39 11.9916 18.5751L7.13852 21.4403C6.38493 21.8852 5.46379 21.216 5.65404 20.3618L6.8793 14.8608C6.95848 14.5053 6.83811 14.1349 6.56509 13.8938L2.34046 10.1636C1.68447 9.58441 2.03631 8.50155 2.90748 8.41853L8.51782 7.88393C8.8804 7.84938 9.19552 7.62043 9.34042 7.28628L11.5825 2.11573Z" fill="#FFC700"/>
</svg>
